# xmcd
#
# Track frame offsets: 
#        150
#        16857
#        28054
#        50311
#        69486
#        88685
#        101254
#        131178
#        148117
#        160588
#        176625
#        192163
#        209796
#        226296
#        244690
#        263351
#        289517
#
# Disc length: 4059 seconds
#
# Revision: 0
# Processed by: cddbd v1.5.2PL0 Copyright (c) Steve Scherf et al.
# Submitted via: ExactAudioCopy v0.95b4
#
DISCID=e70fd911
DTITLE=Neil Young - Live at Massey Hall 1971
DYEAR=1971
DGENRE=Country
TTITLE0=On the way home
TTITLE1=Tell me way
TTITLE2=Old man
TTITLE3=Journey through the past
TTITLE4=Helpless
TTITLE5=Love in mind
TTITLE6=A man needs a maid/Heart of gold suite
TTITLE7=Cowgirl in the sand
TTITLE8=Don't let it bring you down
TTITLE9=There's a World
TTITLE10=Bad Fog of Loneliness
TTITLE11=The Needle and the Damage Done
TTITLE12=Ohio
TTITLE13=See the Sky About to Rain
TTITLE14=Down By the River
TTITLE15=Dance Dance Dance
TTITLE16=I Am a Child
EXTD=
EXTT0=
EXTT1=
EXTT2=
EXTT3=
EXTT4=
EXTT5=
EXTT6=
EXTT7=
EXTT8=
EXTT9=
EXTT10=
EXTT11=
EXTT12=
EXTT13=
EXTT14=
EXTT15=
EXTT16=
PLAYORDER=
